<svg width="12" height="150" viewBox="0 0 12 150" fill="none" xmlns="http://www.w3.org/2000/svg">
  <path id="Vector"
    d="M9.61861 149.405L11.8519 141.038L3.48892 143.287L9.61861 149.405ZM0.60808 93.866C-0.274675 110.94 4.46104 132.484 7.13812 143.071L8.59231 142.703C5.91644 132.121 1.23608 110.771 2.10608 93.944L0.60808 93.866ZM9.61861 0.905044C8.87251 0.981724 8.87251 0.981762 8.87259 0.981882C8.87251 0.981552 8.87259 0.982047 8.87259 0.981882C8.87259 0.982542 8.87281 0.984289 8.87296 0.985684C8.87326 0.988482 8.87364 0.992749 8.87424 0.998472C8.87544 1.00992 8.87716 1.02718 8.87941 1.05014C8.88406 1.09606 8.89089 1.16475 8.89966 1.25519C8.91729 1.43608 8.94279 1.70399 8.97444 2.05079C9.03781 2.7444 9.12556 3.75348 9.22314 5.01304C9.41836 7.53246 9.65251 11.0525 9.80866 15.0536C10.1215 23.0697 10.1183 32.9645 8.87829 40.6136L10.3589 40.8536C11.6242 33.0493 11.621 23.0298 11.3075 14.9951C11.1505 10.9706 10.915 7.43103 10.7187 4.8972C10.6205 3.63012 10.5321 2.61417 10.4683 1.9144C10.4363 1.56451 10.4105 1.29364 10.3926 1.10993C10.3837 1.01808 10.3767 0.948004 10.372 0.900738C10.3696 0.877105 10.3678 0.859173 10.3666 0.847068C10.366 0.841015 10.3655 0.836419 10.3652 0.833297C10.365 0.831735 10.3649 0.830542 10.3648 0.829719C10.3648 0.829308 10.3647 0.828968 10.3647 0.828762C10.3647 0.828516 10.3647 0.828362 9.61861 0.905044ZM8.87829 40.6136C5.63095 60.6442 1.65768 73.5657 0.60808 93.866L2.10608 93.944C3.15052 73.743 7.07839 61.0892 10.3589 40.8536L8.87829 40.6136Z"
    fill="#3D3F54" />
</svg>