<svg width="47" height="46" viewBox="0 0 47 46" fill="none" xmlns="http://www.w3.org/2000/svg">
<g id="record.svg" clip-path="url(#clip0_1_3840)">
<path id="Vector" d="M23.5295 45.1479C35.9322 45.1479 45.9865 35.0935 45.9865 22.6909C45.9865 10.2882 35.9322 0.233887 23.5295 0.233887C11.1268 0.233887 1.07251 10.2882 1.07251 22.6909C1.07251 35.0935 11.1268 45.1479 23.5295 45.1479Z" fill="#FF5C0A"/>
<path id="Vector_2" d="M23.5296 25.8867C22.5517 25.8867 21.7206 25.5436 21.0361 24.8572C20.3516 24.1708 20.0093 23.3373 20.0093 22.3567V15.2967C20.0093 14.3162 20.3516 13.4827 21.0361 12.7963C21.7206 12.1099 22.5517 11.7667 23.5296 11.7667C24.5074 11.7667 25.3386 12.1099 26.0231 12.7963C26.7076 13.4827 27.0498 14.3162 27.0498 15.2967V22.3567C27.0498 23.3373 26.7076 24.1708 26.0231 24.8572C25.3386 25.5436 24.5074 25.8867 23.5296 25.8867ZM22.3562 34.1235V30.5052C20.3223 30.2305 18.6403 29.3187 17.3105 27.7693C15.9806 26.2202 15.3157 24.4159 15.3157 22.3567H17.6625C17.6625 23.9845 18.2347 25.3722 19.3792 26.5198C20.5237 27.6676 21.9072 28.2408 23.5296 28.24C25.1528 28.24 26.5367 27.6663 27.6812 26.5185C28.8256 25.371 29.3975 23.9837 29.3967 22.3567H31.7434C31.7434 24.4159 31.0785 26.2202 29.7488 27.7693C28.4187 29.3187 26.7369 30.2305 24.703 30.5052V34.1235H22.3562Z" fill="#F7F0F0"/>
<path id="Vector_3" d="M23.5303 36.0612L22.3557 34.1158H24.7049L23.5303 36.0612Z" fill="#F7F0F0"/>
</g>
<defs>
<clipPath id="clip0_1_3840">
<rect width="45.1736" height="44.914" fill="white" transform="translate(0.913208 0.233887)"/>
</clipPath>
</defs>
</svg>
