<svg width="21" height="20" viewBox="0 0 21 20" fill="none" xmlns="http://www.w3.org/2000/svg">
<path d="M20.3179 7.6255C20.254 7.42727 20.1331 7.25224 19.9704 7.12224C19.8076 6.99224 19.6102 6.91301 19.4028 6.89444L13.6303 6.37034L11.3476 1.02764C11.2657 0.836264 11.1294 0.673137 10.9557 0.558489C10.7819 0.443841 10.5783 0.382715 10.3702 0.38269C10.1619 0.382712 9.95816 0.443947 9.78438 0.558784C9.6106 0.67362 9.4744 0.836994 9.39271 1.0286L7.11002 6.37034L1.33668 6.89455C1.1295 6.91352 0.932441 6.99289 0.769943 7.12281C0.607444 7.25272 0.486649 7.42747 0.422534 7.62539C0.357914 7.82336 0.352931 8.03595 0.408202 8.23673C0.463474 8.4375 0.576561 8.61759 0.733394 8.75459L5.09673 12.5812L3.81013 18.249C3.76372 18.4523 3.77816 18.6647 3.85165 18.8599C3.92514 19.055 4.05442 19.2242 4.2234 19.3464C4.40436 19.4779 4.62227 19.5489 4.84597 19.5491C5.03804 19.5489 5.22642 19.4964 5.39096 19.3974L10.3703 16.4214L15.3477 19.3974C15.526 19.5046 15.7318 19.5569 15.9396 19.5478C16.1474 19.5388 16.3479 19.4687 16.5162 19.3464C16.6851 19.2242 16.8143 19.055 16.8879 18.8598C16.9614 18.6647 16.9759 18.4523 16.9297 18.249L15.6429 12.5812L20.0063 8.75545C20.1632 8.61834 20.2765 8.43815 20.3319 8.23724C20.3873 8.03634 20.3825 7.82358 20.318 7.62539L20.3179 7.6255Z" fill="#FF5C0A"/>
</svg>
