<svg width="298" height="27" viewBox="0 0 298 27" fill="none" xmlns="http://www.w3.org/2000/svg">
<path d="M18.7816 18.056C17.8203 18.056 16.9756 17.846 16.2476 17.426C15.5196 16.9967 14.9503 16.4087 14.5396 15.662C14.1383 14.9153 13.9376 14.0613 13.9376 13.1C13.9376 12.1293 14.1383 11.2707 14.5396 10.524C14.9503 9.77733 15.5196 9.194 16.2476 8.774C16.9756 8.354 17.8203 8.144 18.7816 8.144C19.743 8.144 20.5876 8.354 21.3156 8.774C22.0436 9.194 22.6083 9.77733 23.0096 10.524C23.4203 11.2707 23.6256 12.1293 23.6256 13.1C23.6256 14.0613 23.4203 14.9153 23.0096 15.662C22.6083 16.4087 22.0436 16.9967 21.3156 17.426C20.5876 17.846 19.743 18.056 18.7816 18.056ZM18.7816 17.538C19.659 17.538 20.4196 17.3513 21.0636 16.978C21.7076 16.6047 22.2023 16.082 22.5476 15.41C22.9023 14.738 23.0796 13.968 23.0796 13.1C23.0796 12.2133 22.9023 11.4387 22.5476 10.776C22.2023 10.104 21.7076 9.58133 21.0636 9.208C20.4196 8.83467 19.659 8.648 18.7816 8.648C17.9043 8.648 17.1436 8.83467 16.4996 9.208C15.8556 9.58133 15.3563 10.104 15.0016 10.776C14.6563 11.4387 14.4836 12.2133 14.4836 13.1C14.4836 13.968 14.6563 14.738 15.0016 15.41C15.3563 16.082 15.8556 16.6047 16.4996 16.978C17.1436 17.3513 17.9043 17.538 18.7816 17.538ZM18.7816 16.334C18.2216 16.334 17.713 16.208 17.2556 15.956C16.7983 15.704 16.4296 15.3353 16.1496 14.85C15.879 14.3553 15.7436 13.7673 15.7436 13.086C15.7436 12.4047 15.879 11.8213 16.1496 11.336C16.4296 10.8507 16.7983 10.482 17.2556 10.23C17.713 9.96867 18.2216 9.838 18.7816 9.838C19.4723 9.838 20.079 10.0247 20.6016 10.398C21.1243 10.762 21.4743 11.2893 21.6516 11.98H20.5736C20.443 11.56 20.2143 11.2427 19.8876 11.028C19.561 10.804 19.1876 10.692 18.7676 10.692C18.2263 10.692 17.7596 10.8927 17.3676 11.294C16.9756 11.6953 16.7796 12.2973 16.7796 13.1C16.7796 13.8933 16.9756 14.4907 17.3676 14.892C17.7596 15.2933 18.2263 15.494 18.7676 15.494C19.6823 15.494 20.2843 15.0693 20.5736 14.22H21.6516C21.4743 14.8733 21.1243 15.3913 20.6016 15.774C20.079 16.1473 19.4723 16.334 18.7816 16.334ZM29.0799 18V8.2H30.2559L35.4779 16.054V8.2H36.6539V18H35.4779L30.2559 10.146V18H29.0799ZM39.3763 9.516C39.143 9.516 38.947 9.44133 38.7883 9.292C38.639 9.13333 38.5643 8.93733 38.5643 8.704C38.5643 8.48 38.639 8.29333 38.7883 8.144C38.947 7.99467 39.143 7.92 39.3763 7.92C39.6003 7.92 39.7916 7.99467 39.9503 8.144C40.109 8.29333 40.1883 8.48 40.1883 8.704C40.1883 8.93733 40.109 9.13333 39.9503 9.292C39.7916 9.44133 39.6003 9.516 39.3763 9.516ZM38.7883 18V11.056H39.9643V18H38.7883ZM45.2039 18.168C44.5412 18.168 43.9439 18.0187 43.4119 17.72C42.8892 17.412 42.4739 16.9873 42.1659 16.446C41.8672 15.8953 41.7179 15.256 41.7179 14.528C41.7179 13.8 41.8672 13.1653 42.1659 12.624C42.4739 12.0733 42.8892 11.6487 43.4119 11.35C43.9439 11.042 44.5412 10.888 45.2039 10.888C46.0252 10.888 46.7159 11.1027 47.2759 11.532C47.8452 11.9613 48.2046 12.5353 48.3539 13.254H47.1499C47.0566 12.8247 46.8279 12.4933 46.4639 12.26C46.0999 12.0173 45.6752 11.896 45.1899 11.896C44.7979 11.896 44.4292 11.994 44.0839 12.19C43.7386 12.386 43.4586 12.68 43.2439 13.072C43.0292 13.464 42.9219 13.9493 42.9219 14.528C42.9219 15.1067 43.0292 15.592 43.2439 15.984C43.4586 16.376 43.7386 16.6747 44.0839 16.88C44.4292 17.076 44.7979 17.174 45.1899 17.174C45.6752 17.174 46.0999 17.0573 46.4639 16.824C46.8279 16.5813 47.0566 16.2407 47.1499 15.802H48.3539C48.2139 16.502 47.8592 17.0713 47.2899 17.51C46.7206 17.9487 46.0252 18.168 45.2039 18.168ZM49.9963 18V7.92H51.1723V12.246C51.4056 11.8167 51.7369 11.4853 52.1663 11.252C52.5956 11.0093 53.0623 10.888 53.5663 10.888C54.3689 10.888 55.0129 11.14 55.4983 11.644C55.9836 12.1387 56.2263 12.904 56.2263 13.94V18H55.0643V14.066C55.0643 12.6193 54.4809 11.896 53.3143 11.896C52.7076 11.896 52.1989 12.1153 51.7883 12.554C51.3776 12.9833 51.1723 13.5993 51.1723 14.402V18H49.9963ZM61.13 18.168C60.4673 18.168 59.8793 18.0187 59.366 17.72C58.8527 17.412 58.4467 16.9873 58.148 16.446C57.8587 15.9047 57.714 15.2653 57.714 14.528C57.714 13.8 57.8587 13.1653 58.148 12.624C58.4373 12.0733 58.8387 11.6487 59.352 11.35C59.8747 11.042 60.4767 10.888 61.158 10.888C61.83 10.888 62.4087 11.042 62.894 11.35C63.3887 11.6487 63.7667 12.0453 64.028 12.54C64.2893 13.0347 64.42 13.5667 64.42 14.136C64.42 14.2387 64.4153 14.3413 64.406 14.444C64.406 14.5467 64.406 14.6633 64.406 14.794H58.876C58.904 15.326 59.0253 15.7693 59.24 16.124C59.464 16.4693 59.7393 16.7307 60.066 16.908C60.402 17.0853 60.7567 17.174 61.13 17.174C61.6153 17.174 62.0213 17.062 62.348 16.838C62.6747 16.614 62.9127 16.3107 63.062 15.928H64.224C64.0373 16.572 63.678 17.1087 63.146 17.538C62.6233 17.958 61.9513 18.168 61.13 18.168ZM61.13 11.882C60.57 11.882 60.0707 12.0547 59.632 12.4C59.2027 12.736 58.9553 13.2307 58.89 13.884H63.258C63.23 13.2587 63.0153 12.7687 62.614 12.414C62.2127 12.0593 61.718 11.882 61.13 11.882ZM65.9787 18V7.92H67.1547V18H65.9787ZM72.2042 18.168C71.5415 18.168 70.9535 18.0187 70.4402 17.72C69.9269 17.412 69.5209 16.9873 69.2222 16.446C68.9329 15.9047 68.7882 15.2653 68.7882 14.528C68.7882 13.8 68.9329 13.1653 69.2222 12.624C69.5115 12.0733 69.9129 11.6487 70.4262 11.35C70.9489 11.042 71.5509 10.888 72.2322 10.888C72.9042 10.888 73.4829 11.042 73.9682 11.35C74.4629 11.6487 74.8409 12.0453 75.1022 12.54C75.3635 13.0347 75.4942 13.5667 75.4942 14.136C75.4942 14.2387 75.4895 14.3413 75.4802 14.444C75.4802 14.5467 75.4802 14.6633 75.4802 14.794H69.9502C69.9782 15.326 70.0995 15.7693 70.3142 16.124C70.5382 16.4693 70.8135 16.7307 71.1402 16.908C71.4762 17.0853 71.8309 17.174 72.2042 17.174C72.6895 17.174 73.0955 17.062 73.4222 16.838C73.7489 16.614 73.9869 16.3107 74.1362 15.928H75.2982C75.1115 16.572 74.7522 17.1087 74.2202 17.538C73.6975 17.958 73.0255 18.168 72.2042 18.168ZM72.2042 11.882C71.6442 11.882 71.1449 12.0547 70.7062 12.4C70.2769 12.736 70.0295 13.2307 69.9642 13.884H74.3322C74.3042 13.2587 74.0895 12.7687 73.6882 12.414C73.2869 12.0593 72.7922 11.882 72.2042 11.882ZM79.7129 18.168C78.8822 18.168 78.1916 17.958 77.6409 17.538C77.0902 17.118 76.7682 16.5487 76.6749 15.83H77.8789C77.9536 16.194 78.1449 16.5113 78.4529 16.782C78.7702 17.0433 79.1949 17.174 79.7269 17.174C80.2216 17.174 80.5856 17.0713 80.8189 16.866C81.0522 16.6513 81.1689 16.3993 81.1689 16.11C81.1689 15.69 81.0149 15.41 80.7069 15.27C80.4082 15.13 79.9836 15.004 79.4329 14.892C79.0596 14.8173 78.6862 14.71 78.3129 14.57C77.9396 14.43 77.6269 14.234 77.3749 13.982C77.1229 13.7207 76.9969 13.38 76.9969 12.96C76.9969 12.3533 77.2209 11.8587 77.6689 11.476C78.1262 11.084 78.7422 10.888 79.5169 10.888C80.2542 10.888 80.8562 11.0747 81.3229 11.448C81.7989 11.812 82.0742 12.3347 82.1489 13.016H80.9869C80.9402 12.6613 80.7862 12.386 80.5249 12.19C80.2729 11.9847 79.9322 11.882 79.5029 11.882C79.0829 11.882 78.7562 11.9707 78.5229 12.148C78.2989 12.3253 78.1869 12.5587 78.1869 12.848C78.1869 13.128 78.3316 13.3473 78.6209 13.506C78.9196 13.6647 79.3209 13.8 79.8249 13.912C80.2542 14.0053 80.6602 14.122 81.0429 14.262C81.4349 14.3927 81.7522 14.5933 81.9949 14.864C82.2469 15.1253 82.3729 15.508 82.3729 16.012C82.3822 16.6373 82.1442 17.1553 81.6589 17.566C81.1829 17.9673 80.5342 18.168 79.7129 18.168ZM86.7129 18.168C85.8822 18.168 85.1916 17.958 84.6409 17.538C84.0902 17.118 83.7682 16.5487 83.6749 15.83H84.8789C84.9536 16.194 85.1449 16.5113 85.4529 16.782C85.7702 17.0433 86.1949 17.174 86.7269 17.174C87.2216 17.174 87.5856 17.0713 87.8189 16.866C88.0522 16.6513 88.1689 16.3993 88.1689 16.11C88.1689 15.69 88.0149 15.41 87.7069 15.27C87.4082 15.13 86.9836 15.004 86.4329 14.892C86.0596 14.8173 85.6862 14.71 85.3129 14.57C84.9396 14.43 84.6269 14.234 84.3749 13.982C84.1229 13.7207 83.9969 13.38 83.9969 12.96C83.9969 12.3533 84.2209 11.8587 84.6689 11.476C85.1262 11.084 85.7422 10.888 86.5169 10.888C87.2542 10.888 87.8562 11.0747 88.3229 11.448C88.7989 11.812 89.0742 12.3347 89.1489 13.016H87.9869C87.9402 12.6613 87.7862 12.386 87.5249 12.19C87.2729 11.9847 86.9322 11.882 86.5029 11.882C86.0829 11.882 85.7562 11.9707 85.5229 12.148C85.2989 12.3253 85.1869 12.5587 85.1869 12.848C85.1869 13.128 85.3316 13.3473 85.6209 13.506C85.9196 13.6647 86.3209 13.8 86.8249 13.912C87.2542 14.0053 87.6602 14.122 88.0429 14.262C88.4349 14.3927 88.7522 14.5933 88.9949 14.864C89.2469 15.1253 89.3729 15.508 89.3729 16.012C89.3822 16.6373 89.1442 17.1553 88.6589 17.566C88.1829 17.9673 87.5342 18.168 86.7129 18.168ZM94.828 18V8.2H96.004V18H94.828ZM98.0119 18V11.056H99.0759L99.1459 12.302C99.3699 11.8633 99.6919 11.518 100.112 11.266C100.532 11.014 101.008 10.888 101.54 10.888C102.361 10.888 103.015 11.14 103.5 11.644C103.995 12.1387 104.242 12.904 104.242 13.94V18H103.066V14.066C103.066 12.6193 102.469 11.896 101.274 11.896C100.677 11.896 100.177 12.1153 99.7759 12.554C99.3839 12.9833 99.1879 13.5993 99.1879 14.402V18H98.0119ZM109.216 18.168C108.553 18.168 107.956 18.0187 107.424 17.72C106.901 17.412 106.486 16.9873 106.178 16.446C105.879 15.8953 105.73 15.256 105.73 14.528C105.73 13.8 105.879 13.1653 106.178 12.624C106.486 12.0733 106.901 11.6487 107.424 11.35C107.956 11.042 108.553 10.888 109.216 10.888C110.037 10.888 110.728 11.1027 111.288 11.532C111.857 11.9613 112.216 12.5353 112.366 13.254H111.162C111.068 12.8247 110.84 12.4933 110.476 12.26C110.112 12.0173 109.687 11.896 109.202 11.896C108.81 11.896 108.441 11.994 108.096 12.19C107.75 12.386 107.47 12.68 107.256 13.072C107.041 13.464 106.934 13.9493 106.934 14.528C106.934 15.1067 107.041 15.592 107.256 15.984C107.47 16.376 107.75 16.6747 108.096 16.88C108.441 17.076 108.81 17.174 109.202 17.174C109.687 17.174 110.112 17.0573 110.476 16.824C110.84 16.5813 111.068 16.2407 111.162 15.802H112.366C112.226 16.502 111.871 17.0713 111.302 17.51C110.732 17.9487 110.037 18.168 109.216 18.168ZM114.414 18.07C114.181 18.07 113.985 17.9953 113.826 17.846C113.677 17.6873 113.602 17.496 113.602 17.272C113.602 17.048 113.677 16.8613 113.826 16.712C113.985 16.5533 114.181 16.474 114.414 16.474C114.638 16.474 114.825 16.5533 114.974 16.712C115.133 16.8613 115.212 17.048 115.212 17.272C115.212 17.496 115.133 17.6873 114.974 17.846C114.825 17.9953 114.638 18.07 114.414 18.07Z" fill="#3D3F54"/>
<path d="M128.84 0V27H130.84V0H128.84Z" fill="#3D3F54" fill-opacity="0.5" mask="url(#path-1-inside-1_1_14)"/>
<path d="M147.723 18.168C147.154 18.168 146.645 18.0513 146.197 17.818C145.758 17.5847 145.422 17.258 145.189 16.838L145.077 18H144.013V7.92H145.189V12.204C145.413 11.868 145.73 11.5647 146.141 11.294C146.561 11.0233 147.093 10.888 147.737 10.888C148.428 10.888 149.03 11.0467 149.543 11.364C150.056 11.6813 150.453 12.1153 150.733 12.666C151.022 13.2167 151.167 13.842 151.167 14.542C151.167 15.242 151.022 15.8673 150.733 16.418C150.453 16.9593 150.052 17.3887 149.529 17.706C149.016 18.014 148.414 18.168 147.723 18.168ZM147.597 17.146C148.064 17.146 148.474 17.0387 148.829 16.824C149.184 16.6 149.464 16.292 149.669 15.9C149.874 15.508 149.977 15.0507 149.977 14.528C149.977 14.0053 149.874 13.548 149.669 13.156C149.464 12.764 149.184 12.4607 148.829 12.246C148.474 12.022 148.064 11.91 147.597 11.91C147.13 11.91 146.72 12.022 146.365 12.246C146.01 12.4607 145.73 12.764 145.525 13.156C145.32 13.548 145.217 14.0053 145.217 14.528C145.217 15.0507 145.32 15.508 145.525 15.9C145.73 16.292 146.01 16.6 146.365 16.824C146.72 17.0387 147.13 17.146 147.597 17.146ZM155.338 18.168C154.517 18.168 153.863 17.9207 153.378 17.426C152.893 16.922 152.65 16.152 152.65 15.116V11.056H153.826V14.99C153.826 16.4367 154.419 17.16 155.604 17.16C156.211 17.16 156.71 16.9453 157.102 16.516C157.503 16.0773 157.704 15.4567 157.704 14.654V11.056H158.88V18H157.816L157.732 16.754C157.517 17.1927 157.195 17.538 156.766 17.79C156.346 18.042 155.87 18.168 155.338 18.168ZM161.53 9.516C161.297 9.516 161.101 9.44133 160.942 9.292C160.793 9.13333 160.718 8.93733 160.718 8.704C160.718 8.48 160.793 8.29333 160.942 8.144C161.101 7.99467 161.297 7.92 161.53 7.92C161.754 7.92 161.945 7.99467 162.104 8.144C162.263 8.29333 162.342 8.48 162.342 8.704C162.342 8.93733 162.263 9.13333 162.104 9.292C161.945 9.44133 161.754 9.516 161.53 9.516ZM160.942 18V11.056H162.118V18H160.942ZM164.165 18V7.92H165.341V18H164.165ZM170.013 18C169.378 18 168.879 17.846 168.515 17.538C168.151 17.23 167.969 16.6747 167.969 15.872V12.05H166.765V11.056H167.969L168.123 9.39H169.145V11.056H171.189V12.05H169.145V15.872C169.145 16.3107 169.234 16.6093 169.411 16.768C169.588 16.9173 169.901 16.992 170.349 16.992H171.077V18H170.013ZM180.098 18.168C179.529 18.168 179.02 18.0513 178.572 17.818C178.133 17.5847 177.797 17.258 177.564 16.838L177.452 18H176.388V7.92H177.564V12.204C177.788 11.868 178.105 11.5647 178.516 11.294C178.936 11.0233 179.468 10.888 180.112 10.888C180.803 10.888 181.405 11.0467 181.918 11.364C182.431 11.6813 182.828 12.1153 183.108 12.666C183.397 13.2167 183.542 13.842 183.542 14.542C183.542 15.242 183.397 15.8673 183.108 16.418C182.828 16.9593 182.427 17.3887 181.904 17.706C181.391 18.014 180.789 18.168 180.098 18.168ZM179.972 17.146C180.439 17.146 180.849 17.0387 181.204 16.824C181.559 16.6 181.839 16.292 182.044 15.9C182.249 15.508 182.352 15.0507 182.352 14.528C182.352 14.0053 182.249 13.548 182.044 13.156C181.839 12.764 181.559 12.4607 181.204 12.246C180.849 12.022 180.439 11.91 179.972 11.91C179.505 11.91 179.095 12.022 178.74 12.246C178.385 12.4607 178.105 12.764 177.9 13.156C177.695 13.548 177.592 14.0053 177.592 14.528C177.592 15.0507 177.695 15.508 177.9 15.9C178.105 16.292 178.385 16.6 178.74 16.824C179.095 17.0387 179.505 17.146 179.972 17.146ZM185.375 21.08L187.097 17.328H186.691L183.933 11.056H185.207L187.503 16.46L189.939 11.056H191.157L186.607 21.08H185.375ZM201.185 20.786C200.186 20.786 199.309 20.5947 198.553 20.212C197.806 19.8293 197.223 19.288 196.803 18.588C196.392 17.888 196.187 17.0573 196.187 16.096C196.187 15.1067 196.36 14.1827 196.705 13.324C197.05 12.4653 197.536 11.714 198.161 11.07C198.786 10.426 199.524 9.92667 200.373 9.572C201.222 9.21733 202.156 9.04 203.173 9.04C204.209 9.04 205.11 9.24067 205.875 9.642C206.64 10.034 207.228 10.5847 207.639 11.294C208.059 11.994 208.269 12.8107 208.269 13.744C208.269 14.276 208.204 14.8033 208.073 15.326C207.942 15.8393 207.746 16.306 207.485 16.726C207.233 17.1367 206.92 17.468 206.547 17.72C206.183 17.9627 205.763 18.084 205.287 18.084C204.811 18.084 204.447 17.9627 204.195 17.72C203.952 17.4773 203.817 17.1507 203.789 16.74C203.5 17.16 203.131 17.4913 202.683 17.734C202.244 17.9673 201.778 18.084 201.283 18.084C200.574 18.084 200.018 17.8693 199.617 17.44C199.225 17.0107 199.029 16.432 199.029 15.704C199.029 15.1907 199.108 14.7007 199.267 14.234C199.435 13.758 199.668 13.338 199.967 12.974C200.266 12.6007 200.62 12.3067 201.031 12.092C201.442 11.8773 201.899 11.77 202.403 11.77C203.346 11.77 203.957 12.1573 204.237 12.932L204.419 11.924H205.413L204.713 15.928C204.648 16.3293 204.666 16.656 204.769 16.908C204.881 17.1507 205.11 17.272 205.455 17.272C205.754 17.272 206.02 17.1693 206.253 16.964C206.486 16.7493 206.682 16.4693 206.841 16.124C207 15.7693 207.116 15.3913 207.191 14.99C207.275 14.5793 207.317 14.1827 207.317 13.8C207.317 12.5773 206.934 11.616 206.169 10.916C205.413 10.216 204.368 9.866 203.033 9.866C202.184 9.866 201.4 10.0247 200.681 10.342C199.972 10.6593 199.351 11.098 198.819 11.658C198.287 12.218 197.872 12.8667 197.573 13.604C197.284 14.3413 197.139 15.1393 197.139 15.998C197.139 16.838 197.312 17.552 197.657 18.14C198.002 18.728 198.492 19.176 199.127 19.484C199.762 19.792 200.518 19.946 201.395 19.946C201.796 19.946 202.198 19.904 202.599 19.82C203 19.7453 203.374 19.6287 203.719 19.47L203.915 20.268C203.075 20.6133 202.165 20.786 201.185 20.786ZM201.633 17.188C202.034 17.188 202.403 17.0807 202.739 16.866C203.075 16.6513 203.35 16.3573 203.565 15.984C203.78 15.6013 203.91 15.1627 203.957 14.668C204.022 14.1173 203.924 13.646 203.663 13.254C203.411 12.862 203 12.666 202.431 12.666C201.955 12.666 201.54 12.806 201.185 13.086C200.84 13.3567 200.574 13.7113 200.387 14.15C200.2 14.5887 200.107 15.046 200.107 15.522C200.107 16.026 200.233 16.432 200.485 16.74C200.746 17.0387 201.129 17.188 201.633 17.188ZM210.281 18V7.92H211.457V18H210.281ZM216.548 18.168C215.895 18.168 215.307 18.0187 214.784 17.72C214.262 17.4213 213.846 17.0013 213.538 16.46C213.24 15.9093 213.09 15.2653 213.09 14.528C213.09 13.7907 213.244 13.1513 213.552 12.61C213.86 12.0593 214.276 11.6347 214.798 11.336C215.33 11.0373 215.923 10.888 216.576 10.888C217.23 10.888 217.818 11.0373 218.34 11.336C218.863 11.6347 219.274 12.0593 219.572 12.61C219.88 13.1513 220.034 13.7907 220.034 14.528C220.034 15.2653 219.88 15.9093 219.572 16.46C219.264 17.0013 218.844 17.4213 218.312 17.72C217.79 18.0187 217.202 18.168 216.548 18.168ZM216.548 17.16C216.95 17.16 217.323 17.062 217.668 16.866C218.014 16.67 218.294 16.376 218.508 15.984C218.723 15.592 218.83 15.1067 218.83 14.528C218.83 13.9493 218.723 13.464 218.508 13.072C218.303 12.68 218.028 12.386 217.682 12.19C217.337 11.994 216.968 11.896 216.576 11.896C216.175 11.896 215.802 11.994 215.456 12.19C215.111 12.386 214.831 12.68 214.616 13.072C214.402 13.464 214.294 13.9493 214.294 14.528C214.294 15.1067 214.402 15.592 214.616 15.984C214.831 16.376 215.106 16.67 215.442 16.866C215.788 17.062 216.156 17.16 216.548 17.16ZM224.203 18.168C223.382 18.168 222.729 17.9207 222.243 17.426C221.758 16.922 221.515 16.152 221.515 15.116V11.056H222.691V14.99C222.691 16.4367 223.284 17.16 224.469 17.16C225.076 17.16 225.575 16.9453 225.967 16.516C226.369 16.0773 226.569 15.4567 226.569 14.654V11.056H227.745V18H226.681L226.597 16.754C226.383 17.1927 226.061 17.538 225.631 17.79C225.211 18.042 224.735 18.168 224.203 18.168ZM230.395 9.516C230.162 9.516 229.966 9.44133 229.807 9.292C229.658 9.13333 229.583 8.93733 229.583 8.704C229.583 8.48 229.658 8.29333 229.807 8.144C229.966 7.99467 230.162 7.92 230.395 7.92C230.619 7.92 230.81 7.99467 230.969 8.144C231.128 8.29333 231.207 8.48 231.207 8.704C231.207 8.93733 231.128 9.13333 230.969 9.292C230.81 9.44133 230.619 9.516 230.395 9.516ZM229.807 18V11.056H230.983V18H229.807ZM235.691 18.168C234.86 18.168 234.169 17.958 233.619 17.538C233.068 17.118 232.746 16.5487 232.653 15.83H233.857C233.931 16.194 234.123 16.5113 234.431 16.782C234.748 17.0433 235.173 17.174 235.705 17.174C236.199 17.174 236.563 17.0713 236.797 16.866C237.03 16.6513 237.147 16.3993 237.147 16.11C237.147 15.69 236.993 15.41 236.685 15.27C236.386 15.13 235.961 15.004 235.411 14.892C235.037 14.8173 234.664 14.71 234.291 14.57C233.917 14.43 233.605 14.234 233.353 13.982C233.101 13.7207 232.975 13.38 232.975 12.96C232.975 12.3533 233.199 11.8587 233.647 11.476C234.104 11.084 234.72 10.888 235.495 10.888C236.232 10.888 236.834 11.0747 237.301 11.448C237.777 11.812 238.052 12.3347 238.127 13.016H236.965C236.918 12.6613 236.764 12.386 236.503 12.19C236.251 11.9847 235.91 11.882 235.481 11.882C235.061 11.882 234.734 11.9707 234.501 12.148C234.277 12.3253 234.165 12.5587 234.165 12.848C234.165 13.128 234.309 13.3473 234.599 13.506C234.897 13.6647 235.299 13.8 235.803 13.912C236.232 14.0053 236.638 14.122 237.021 14.262C237.413 14.3927 237.73 14.5933 237.973 14.864C238.225 15.1253 238.351 15.508 238.351 16.012C238.36 16.6373 238.122 17.1553 237.637 17.566C237.161 17.9673 236.512 18.168 235.691 18.168ZM240.031 21.08V11.056H241.095L241.207 12.204C241.431 11.868 241.748 11.5647 242.159 11.294C242.579 11.0233 243.111 10.888 243.755 10.888C244.445 10.888 245.047 11.0467 245.561 11.364C246.074 11.6813 246.471 12.1153 246.751 12.666C247.04 13.2167 247.185 13.842 247.185 14.542C247.185 15.242 247.04 15.8673 246.751 16.418C246.471 16.9593 246.069 17.3887 245.547 17.706C245.033 18.014 244.431 18.168 243.741 18.168C243.171 18.168 242.663 18.0513 242.215 17.818C241.776 17.5847 241.44 17.258 241.207 16.838V21.08H240.031ZM243.615 17.146C244.081 17.146 244.492 17.0387 244.847 16.824C245.201 16.6 245.481 16.292 245.687 15.9C245.892 15.508 245.995 15.0507 245.995 14.528C245.995 14.0053 245.892 13.548 245.687 13.156C245.481 12.764 245.201 12.4607 244.847 12.246C244.492 12.022 244.081 11.91 243.615 11.91C243.148 11.91 242.737 12.022 242.383 12.246C242.028 12.4607 241.748 12.764 241.543 13.156C241.337 13.548 241.235 14.0053 241.235 14.528C241.235 15.0507 241.337 15.508 241.543 15.9C241.748 16.292 242.028 16.6 242.383 16.824C242.737 17.0387 243.148 17.146 243.615 17.146ZM251.944 18.168C251.281 18.168 250.693 18.0187 250.18 17.72C249.666 17.412 249.26 16.9873 248.962 16.446C248.672 15.9047 248.528 15.2653 248.528 14.528C248.528 13.8 248.672 13.1653 248.962 12.624C249.251 12.0733 249.652 11.6487 250.166 11.35C250.688 11.042 251.29 10.888 251.972 10.888C252.644 10.888 253.222 11.042 253.708 11.35C254.202 11.6487 254.58 12.0453 254.842 12.54C255.103 13.0347 255.234 13.5667 255.234 14.136C255.234 14.2387 255.229 14.3413 255.22 14.444C255.22 14.5467 255.22 14.6633 255.22 14.794H249.69C249.718 15.326 249.839 15.7693 250.054 16.124C250.278 16.4693 250.553 16.7307 250.88 16.908C251.216 17.0853 251.57 17.174 251.944 17.174C252.429 17.174 252.835 17.062 253.162 16.838C253.488 16.614 253.726 16.3107 253.876 15.928H255.038C254.851 16.572 254.492 17.1087 253.96 17.538C253.437 17.958 252.765 18.168 251.944 18.168ZM251.944 11.882C251.384 11.882 250.884 12.0547 250.446 12.4C250.016 12.736 249.769 13.2307 249.704 13.884H254.072C254.044 13.2587 253.829 12.7687 253.428 12.414C253.026 12.0593 252.532 11.882 251.944 11.882ZM256.792 18V11.056H257.856L257.954 12.386C258.169 11.9287 258.496 11.5647 258.934 11.294C259.373 11.0233 259.914 10.888 260.558 10.888V12.12H260.236C259.826 12.12 259.448 12.1947 259.102 12.344C258.757 12.484 258.482 12.7267 258.276 13.072C258.071 13.4173 257.968 13.8933 257.968 14.5V18H256.792ZM264.741 18.168C264.078 18.168 263.49 18.0187 262.977 17.72C262.463 17.412 262.057 16.9873 261.759 16.446C261.469 15.9047 261.325 15.2653 261.325 14.528C261.325 13.8 261.469 13.1653 261.759 12.624C262.048 12.0733 262.449 11.6487 262.963 11.35C263.485 11.042 264.087 10.888 264.769 10.888C265.441 10.888 266.019 11.042 266.505 11.35C266.999 11.6487 267.377 12.0453 267.639 12.54C267.9 13.0347 268.031 13.5667 268.031 14.136C268.031 14.2387 268.026 14.3413 268.017 14.444C268.017 14.5467 268.017 14.6633 268.017 14.794H262.487C262.515 15.326 262.636 15.7693 262.851 16.124C263.075 16.4693 263.35 16.7307 263.677 16.908C264.013 17.0853 264.367 17.174 264.741 17.174C265.226 17.174 265.632 17.062 265.959 16.838C266.285 16.614 266.523 16.3107 266.673 15.928H267.835C267.648 16.572 267.289 17.1087 266.757 17.538C266.234 17.958 265.562 18.168 264.741 18.168ZM264.741 11.882C264.181 11.882 263.681 12.0547 263.243 12.4C262.813 12.736 262.566 13.2307 262.501 13.884H266.869C266.841 13.2587 266.626 12.7687 266.225 12.414C265.823 12.0593 265.329 11.882 264.741 11.882ZM270.303 9.516C270.07 9.516 269.874 9.44133 269.715 9.292C269.566 9.13333 269.491 8.93733 269.491 8.704C269.491 8.48 269.566 8.29333 269.715 8.144C269.874 7.99467 270.07 7.92 270.303 7.92C270.527 7.92 270.719 7.99467 270.877 8.144C271.036 8.29333 271.115 8.48 271.115 8.704C271.115 8.93733 271.036 9.13333 270.877 9.292C270.719 9.44133 270.527 9.516 270.303 9.516ZM269.715 18V11.056H270.891V18H269.715ZM272.939 18V11.056H274.003L274.101 12.386C274.316 11.9287 274.642 11.5647 275.081 11.294C275.52 11.0233 276.061 10.888 276.705 10.888V12.12H276.383C275.972 12.12 275.594 12.1947 275.249 12.344C274.904 12.484 274.628 12.7267 274.423 13.072C274.218 13.4173 274.115 13.8933 274.115 14.5V18H272.939ZM280.335 18.168C279.756 18.168 279.276 18.07 278.893 17.874C278.51 17.678 278.226 17.4167 278.039 17.09C277.852 16.7633 277.759 16.4087 277.759 16.026C277.759 15.3167 278.03 14.7707 278.571 14.388C279.112 14.0053 279.85 13.814 280.783 13.814H282.659V13.73C282.659 13.1233 282.5 12.666 282.183 12.358C281.866 12.0407 281.441 11.882 280.909 11.882C280.452 11.882 280.055 11.9987 279.719 12.232C279.392 12.456 279.187 12.7873 279.103 13.226H277.899C277.946 12.722 278.114 12.2973 278.403 11.952C278.702 11.6067 279.07 11.3453 279.509 11.168C279.948 10.9813 280.414 10.888 280.909 10.888C281.88 10.888 282.608 11.1493 283.093 11.672C283.588 12.1853 283.835 12.8713 283.835 13.73V18H282.785L282.715 16.754C282.519 17.146 282.23 17.482 281.847 17.762C281.474 18.0327 280.97 18.168 280.335 18.168ZM280.517 17.174C280.965 17.174 281.348 17.0573 281.665 16.824C281.992 16.5907 282.239 16.2873 282.407 15.914C282.575 15.5407 282.659 15.1487 282.659 14.738V14.724H280.881C280.19 14.724 279.7 14.8453 279.411 15.088C279.131 15.3213 278.991 15.6153 278.991 15.97C278.991 16.334 279.122 16.628 279.383 16.852C279.654 17.0667 280.032 17.174 280.517 17.174Z" fill="#3D3F54"/>
</svg>
