<svg width="201" height="44" viewBox="0 0 201 44" fill="none" xmlns="http://www.w3.org/2000/svg">
<rect width="201" height="44" fill="#1E1E1E"/>
<rect width="1301" height="4756" transform="translate(-550 -25)" fill="url(#paint0_radial_0_1)"/>
<g clip-path="url(#clip0_0_1)">
<g clip-path="url(#clip1_0_1)">
<g clip-path="url(#clip2_0_1)">
<path d="M192.1 0.799805H8.8999C4.48162 0.799805 0.899902 4.38153 0.899902 8.7998V35.1998C0.899902 39.6181 4.48162 43.1998 8.8999 43.1998H192.1C196.518 43.1998 200.1 39.6181 200.1 35.1998V8.7998C200.1 4.38153 196.518 0.799805 192.1 0.799805Z" fill="white" stroke="#FF6154" stroke-width="0.8"/>
<path d="M43.355 16.1997V10.9633H45.4209C45.8181 10.9633 46.1564 11.0392 46.436 11.1909C46.7155 11.3409 46.9286 11.5497 47.0752 11.8173C47.2235 12.0832 47.2976 12.39 47.2976 12.7378C47.2976 13.0855 47.2226 13.3923 47.0726 13.6582C46.9226 13.9241 46.7053 14.1312 46.4206 14.2795C46.1377 14.4278 45.7951 14.502 45.3928 14.502H44.076V13.6148H45.2138C45.4269 13.6148 45.6025 13.5781 45.7405 13.5048C45.8803 13.4298 45.9843 13.3267 46.0525 13.1954C46.1223 13.0625 46.1573 12.9099 46.1573 12.7378C46.1573 12.5639 46.1223 12.4122 46.0525 12.2827C45.9843 12.1514 45.8803 12.05 45.7405 11.9784C45.6008 11.9051 45.4235 11.8685 45.2087 11.8685H44.4621V16.1997H43.355ZM48.0167 16.1997V10.9633H50.0826C50.4781 10.9633 50.8156 11.0341 51.0951 11.1756C51.3764 11.3153 51.5903 11.5139 51.7369 11.7713C51.8852 12.027 51.9593 12.3278 51.9593 12.6739C51.9593 13.0216 51.8843 13.3207 51.7343 13.5713C51.5843 13.8202 51.367 14.0111 51.0824 14.144C50.7994 14.277 50.4568 14.3435 50.0545 14.3435H48.6713V13.4537H49.8755C50.0869 13.4537 50.2625 13.4247 50.4022 13.3668C50.542 13.3088 50.646 13.2219 50.7142 13.106C50.7841 12.99 50.819 12.846 50.819 12.6739C50.819 12.5 50.7841 12.3534 50.7142 12.2341C50.646 12.1148 50.5412 12.0244 50.3997 11.9631C50.2599 11.9 50.0835 11.8685 49.8704 11.8685H49.1238V16.1997H48.0167ZM50.8446 13.8168L52.146 16.1997H50.9238L49.6505 13.8168H50.8446ZM57.5537 13.5815C57.5537 14.1525 57.4454 14.6383 57.229 15.0389C57.0142 15.4395 56.721 15.7454 56.3494 15.9568C55.9795 16.1665 55.5636 16.2713 55.1017 16.2713C54.6363 16.2713 54.2187 16.1656 53.8488 15.9543C53.479 15.7429 53.1866 15.4369 52.9718 15.0364C52.7571 14.6358 52.6497 14.1508 52.6497 13.5815C52.6497 13.0105 52.7571 12.5247 52.9718 12.1241C53.1866 11.7236 53.479 11.4185 53.8488 11.2088C54.2187 10.9974 54.6363 10.8918 55.1017 10.8918C55.5636 10.8918 55.9795 10.9974 56.3494 11.2088C56.721 11.4185 57.0142 11.7236 57.229 12.1241C57.4454 12.5247 57.5537 13.0105 57.5537 13.5815ZM56.4312 13.5815C56.4312 13.2116 56.3758 12.8997 56.265 12.6457C56.1559 12.3918 56.0017 12.1991 55.8022 12.0679C55.6028 11.9366 55.3693 11.871 55.1017 11.871C54.8341 11.871 54.6005 11.9366 54.4011 12.0679C54.2017 12.1991 54.0466 12.3918 53.9358 12.6457C53.8267 12.8997 53.7721 13.2116 53.7721 13.5815C53.7721 13.9514 53.8267 14.2633 53.9358 14.5173C54.0466 14.7713 54.2017 14.9639 54.4011 15.0952C54.6005 15.2264 54.8341 15.292 55.1017 15.292C55.3693 15.292 55.6028 15.2264 55.8022 15.0952C56.0017 14.9639 56.1559 14.7713 56.265 14.5173C56.3758 14.2633 56.4312 13.9514 56.4312 13.5815ZM60.23 16.1997H58.3738V10.9633H60.2454C60.7721 10.9633 61.2255 11.0682 61.6056 11.2778C61.9857 11.4858 62.278 11.7849 62.4826 12.1753C62.6888 12.5656 62.7919 13.0327 62.7919 13.5764C62.7919 14.1219 62.6888 14.5906 62.4826 14.9827C62.278 15.3747 61.984 15.6756 61.6005 15.8852C61.2187 16.0949 60.7618 16.1997 60.23 16.1997ZM59.4809 15.2511H60.184C60.5113 15.2511 60.7866 15.1932 61.0098 15.0773C61.2348 14.9597 61.4036 14.7781 61.5161 14.5327C61.6303 14.2855 61.6874 13.9668 61.6874 13.5764C61.6874 13.1895 61.6303 12.8733 61.5161 12.6278C61.4036 12.3824 61.2357 12.2017 61.0124 12.0858C60.7891 11.9699 60.5138 11.9119 60.1866 11.9119H59.4809V15.2511ZM66.8464 10.9633H67.9535V14.3639C67.9535 14.7457 67.8623 15.0798 67.6799 15.3662C67.4993 15.6525 67.2461 15.8758 66.9206 16.0361C66.595 16.1946 66.2157 16.2739 65.7828 16.2739C65.3481 16.2739 64.968 16.1946 64.6424 16.0361C64.3169 15.8758 64.0638 15.6525 63.8831 15.3662C63.7024 15.0798 63.612 14.7457 63.612 14.3639V10.9633H64.7192V14.2693C64.7192 14.4687 64.7626 14.646 64.8495 14.8011C64.9382 14.9562 65.0626 15.0781 65.2228 15.1668C65.3831 15.2554 65.5697 15.2997 65.7828 15.2997C65.9976 15.2997 66.1842 15.2554 66.3427 15.1668C66.503 15.0781 66.6265 14.9562 66.7135 14.8011C66.8021 14.646 66.8464 14.4687 66.8464 14.2693V10.9633ZM73.4846 12.7966H72.3647C72.3442 12.6517 72.3025 12.523 72.2394 12.4105C72.1763 12.2963 72.0954 12.1991 71.9965 12.119C71.8976 12.0389 71.7834 11.9775 71.6539 11.9349C71.526 11.8923 71.3871 11.871 71.2371 11.871C70.9661 11.871 70.73 11.9383 70.5289 12.073C70.3277 12.206 70.1718 12.4003 70.061 12.656C69.9502 12.9099 69.8948 13.2185 69.8948 13.5815C69.8948 13.9548 69.9502 14.2685 70.061 14.5224C70.1735 14.7764 70.3303 14.9682 70.5314 15.0977C70.7326 15.2273 70.9652 15.292 71.2294 15.292C71.3777 15.292 71.515 15.2724 71.6411 15.2332C71.7689 15.194 71.8823 15.1369 71.9812 15.0619C72.08 14.9852 72.1618 14.8923 72.2266 14.7832C72.2931 14.6741 72.3391 14.5497 72.3647 14.4099L73.4846 14.415C73.4556 14.6554 73.3831 14.8872 73.2672 15.1105C73.153 15.3321 72.9988 15.5307 72.8044 15.7062C72.6118 15.8801 72.3817 16.0182 72.1141 16.1204C71.8482 16.221 71.5473 16.2713 71.2116 16.2713C70.7445 16.2713 70.3269 16.1656 69.9587 15.9543C69.5922 15.7429 69.3025 15.4369 69.0894 15.0364C68.878 14.6358 68.7723 14.1508 68.7723 13.5815C68.7723 13.0105 68.8797 12.5247 69.0945 12.1241C69.3093 11.7236 69.6008 11.4185 69.9689 11.2088C70.3371 10.9974 70.7513 10.8918 71.2116 10.8918C71.515 10.8918 71.7962 10.9344 72.0553 11.0196C72.3161 11.1048 72.5471 11.2293 72.7482 11.3929C72.9493 11.5548 73.113 11.7534 73.2391 11.9886C73.3669 12.2239 73.4488 12.4932 73.4846 12.7966ZM74.079 11.8761V10.9633H78.3796V11.8761H76.7765V16.1997H75.6821V11.8761H74.079ZM80.7542 16.1997V10.9633H81.8613V13.1239H84.1088V10.9633H85.2133V16.1997H84.1088V14.0366H81.8613V16.1997H80.7542ZM89.3605 10.9633H90.4676V14.3639C90.4676 14.7457 90.3764 15.0798 90.194 15.3662C90.0133 15.6525 89.7602 15.8758 89.4346 16.0361C89.1091 16.1946 88.7298 16.2739 88.2969 16.2739C87.8622 16.2739 87.4821 16.1946 87.1565 16.0361C86.8309 15.8758 86.5778 15.6525 86.3971 15.3662C86.2165 15.0798 86.1261 14.7457 86.1261 14.3639V10.9633H87.2332V14.2693C87.2332 14.4687 87.2767 14.646 87.3636 14.8011C87.4522 14.9562 87.5767 15.0781 87.7369 15.1668C87.8971 15.2554 88.0838 15.2997 88.2969 15.2997C88.5116 15.2997 88.6983 15.2554 88.8568 15.1668C89.017 15.0781 89.1406 14.9562 89.2275 14.8011C89.3162 14.646 89.3605 14.4687 89.3605 14.2693V10.9633ZM95.7583 10.9633V16.1997H94.802L92.5239 12.904H92.4856V16.1997H91.3785V10.9633H92.35L94.6103 14.2565H94.6563V10.9633H95.7583ZM96.4736 11.8761V10.9633H100.774V11.8761H99.171V16.1997H98.0767V11.8761H96.4736Z" fill="#FF6154"/>
<path d="M46.3999 31.5999L47.9271 22.2908H49.3817L47.8544 31.5999H46.3999ZM42.2317 29.2908L42.4726 27.8362H49.7453L49.5044 29.2908H42.2317ZM43.1271 31.5999L44.6544 22.2908H46.1089L44.5817 31.5999H43.1271ZM42.7635 26.0544L43.0089 24.5999H50.2817L50.0362 26.0544H42.7635ZM55.2169 22.2908V31.5999H53.2487V24.1589H53.1942L51.0624 25.4953V23.7499L53.3669 22.2908H55.2169ZM60.4464 31.5999V22.2908H64.1192C64.8252 22.2908 65.4267 22.4256 65.9237 22.6953C66.4207 22.962 66.7995 23.3332 67.0601 23.8089C67.3237 24.2817 67.4555 24.8271 67.4555 25.4453C67.4555 26.0635 67.3222 26.6089 67.0555 27.0817C66.7889 27.5544 66.4025 27.9226 65.8964 28.1862C65.3934 28.4499 64.7843 28.5817 64.0692 28.5817H61.7283V27.0044H63.751C64.1298 27.0044 64.4419 26.9392 64.6874 26.8089C64.9358 26.6756 65.1207 26.4923 65.2419 26.2589C65.3661 26.0226 65.4283 25.7514 65.4283 25.4453C65.4283 25.1362 65.3661 24.8665 65.2419 24.6362C65.1207 24.4029 64.9358 24.2226 64.6874 24.0953C64.4389 23.965 64.1237 23.8999 63.7419 23.8999H62.4146V31.5999H60.4464ZM68.6976 31.5999V24.618H70.5749V25.8362H70.6476C70.7749 25.4029 70.9885 25.0756 71.2885 24.8544C71.5885 24.6302 71.9339 24.518 72.3249 24.518C72.4218 24.518 72.5264 24.5241 72.6385 24.5362C72.7506 24.5483 72.8491 24.565 72.9339 24.5862V26.3044C72.843 26.2771 72.7173 26.2529 72.5567 26.2317C72.3961 26.2105 72.2491 26.1999 72.1158 26.1999C71.8309 26.1999 71.5764 26.262 71.3521 26.3862C71.1309 26.5074 70.9552 26.6771 70.8249 26.8953C70.6976 27.1135 70.6339 27.365 70.6339 27.6499V31.5999H68.6976ZM76.7646 31.7362C76.0586 31.7362 75.448 31.5862 74.9328 31.2862C74.4207 30.9832 74.0252 30.562 73.7464 30.0226C73.4677 29.4802 73.3283 28.8514 73.3283 28.1362C73.3283 27.415 73.4677 26.7847 73.7464 26.2453C74.0252 25.7029 74.4207 25.2817 74.9328 24.9817C75.448 24.6786 76.0586 24.5271 76.7646 24.5271C77.4707 24.5271 78.0798 24.6786 78.5919 24.9817C79.1071 25.2817 79.504 25.7029 79.7828 26.2453C80.0616 26.7847 80.201 27.415 80.201 28.1362C80.201 28.8514 80.0616 29.4802 79.7828 30.0226C79.504 30.562 79.1071 30.9832 78.5919 31.2862C78.0798 31.5862 77.4707 31.7362 76.7646 31.7362ZM76.7737 30.2362C77.0949 30.2362 77.3631 30.1453 77.5783 29.9635C77.7934 29.7786 77.9555 29.5271 78.0646 29.2089C78.1767 28.8908 78.2328 28.5286 78.2328 28.1226C78.2328 27.7165 78.1767 27.3544 78.0646 27.0362C77.9555 26.718 77.7934 26.4665 77.5783 26.2817C77.3631 26.0968 77.0949 26.0044 76.7737 26.0044C76.4495 26.0044 76.1767 26.0968 75.9555 26.2817C75.7374 26.4665 75.5722 26.718 75.4601 27.0362C75.351 27.3544 75.2964 27.7165 75.2964 28.1226C75.2964 28.5286 75.351 28.8908 75.4601 29.2089C75.5722 29.5271 75.7374 29.7786 75.9555 29.9635C76.1767 30.1453 76.4495 30.2362 76.7737 30.2362ZM84.0328 31.7135C83.5025 31.7135 83.0222 31.5771 82.5919 31.3044C82.1646 31.0286 81.8252 30.6241 81.5737 30.0908C81.3252 29.5544 81.201 28.8968 81.201 28.118C81.201 27.318 81.3298 26.6529 81.5874 26.1226C81.8449 25.5892 82.1874 25.1908 82.6146 24.9271C83.0449 24.6605 83.5161 24.5271 84.0283 24.5271C84.4192 24.5271 84.7449 24.5938 85.0055 24.7271C85.2692 24.8574 85.4813 25.0211 85.6419 25.218C85.8055 25.412 85.9298 25.6029 86.0146 25.7908H86.0737V22.2908H88.0055V31.5999H86.0964V30.4817H86.0146C85.9237 30.6756 85.7949 30.868 85.6283 31.0589C85.4646 31.2468 85.251 31.4029 84.9874 31.5271C84.7267 31.6514 84.4086 31.7135 84.0328 31.7135ZM84.6464 30.1726C84.9586 30.1726 85.2222 30.0877 85.4374 29.918C85.6555 29.7453 85.8222 29.5044 85.9374 29.1953C86.0555 28.8862 86.1146 28.5241 86.1146 28.1089C86.1146 27.6938 86.0571 27.3332 85.9419 27.0271C85.8267 26.7211 85.6601 26.4847 85.4419 26.318C85.2237 26.1514 84.9586 26.068 84.6464 26.068C84.3283 26.068 84.0601 26.1544 83.8419 26.3271C83.6237 26.4999 83.4586 26.7392 83.3464 27.0453C83.2343 27.3514 83.1783 27.7059 83.1783 28.1089C83.1783 28.515 83.2343 28.8741 83.3464 29.1862C83.4616 29.4953 83.6267 29.7377 83.8419 29.9135C84.0601 30.0862 84.3283 30.1726 84.6464 30.1726ZM94.0749 28.6271V24.618H96.0112V31.5999H94.1521V30.3317H94.0794C93.9218 30.7408 93.6597 31.0696 93.293 31.318C92.9294 31.5665 92.4855 31.6908 91.9612 31.6908C91.4945 31.6908 91.0839 31.5847 90.7294 31.3726C90.3749 31.1605 90.0976 30.8589 89.8976 30.468C89.7006 30.0771 89.6006 29.6089 89.5976 29.0635V24.618H91.5339V28.718C91.537 29.1302 91.6476 29.4559 91.8658 29.6953C92.0839 29.9347 92.3764 30.0544 92.743 30.0544C92.9764 30.0544 93.1945 30.0014 93.3976 29.8953C93.6006 29.7862 93.7642 29.6256 93.8885 29.4135C94.0158 29.2014 94.0779 28.9392 94.0749 28.6271ZM100.715 31.7362C99.9995 31.7362 99.3843 31.5847 98.8692 31.2817C98.3571 30.9756 97.9631 30.5514 97.6874 30.0089C97.4146 29.4665 97.2783 28.8423 97.2783 28.1362C97.2783 27.4211 97.4161 26.7938 97.6919 26.2544C97.9707 25.712 98.3661 25.2892 98.8783 24.9862C99.3904 24.6802 99.9995 24.5271 100.706 24.5271C101.315 24.5271 101.848 24.6377 102.306 24.8589C102.763 25.0802 103.125 25.3908 103.392 25.7908C103.659 26.1908 103.806 26.6605 103.833 27.1999H102.006C101.954 26.8514 101.818 26.5711 101.596 26.3589C101.378 26.1438 101.092 26.0362 100.737 26.0362C100.437 26.0362 100.175 26.118 99.951 26.2817C99.7298 26.4423 99.5571 26.6771 99.4328 26.9862C99.3086 27.2953 99.2464 27.6696 99.2464 28.1089C99.2464 28.5544 99.3071 28.9332 99.4283 29.2453C99.5525 29.5574 99.7267 29.7953 99.951 29.9589C100.175 30.1226 100.437 30.2044 100.737 30.2044C100.959 30.2044 101.157 30.1589 101.333 30.068C101.512 29.9771 101.659 29.8453 101.774 29.6726C101.892 29.4968 101.969 29.2862 102.006 29.0408H103.833C103.803 29.5741 103.657 30.0438 103.396 30.4499C103.139 30.8529 102.783 31.168 102.328 31.3953C101.874 31.6226 101.336 31.7362 100.715 31.7362ZM108.786 24.618V26.0726H104.582V24.618H108.786ZM105.536 22.9453H107.473V29.4544C107.473 29.6332 107.5 29.7726 107.554 29.8726C107.609 29.9696 107.685 30.0377 107.782 30.0771C107.882 30.1165 107.997 30.1362 108.127 30.1362C108.218 30.1362 108.309 30.1286 108.4 30.1135C108.491 30.0953 108.56 30.0817 108.609 30.0726L108.913 31.5135C108.817 31.5438 108.68 31.5786 108.504 31.618C108.329 31.6605 108.115 31.6862 107.863 31.6953C107.397 31.7135 106.988 31.6514 106.636 31.5089C106.288 31.3665 106.017 31.1453 105.823 30.8453C105.629 30.5453 105.533 30.1665 105.536 29.7089V22.9453ZM116.165 31.7362C115.459 31.7362 114.848 31.5862 114.333 31.2862C113.821 30.9832 113.425 30.562 113.146 30.0226C112.868 29.4802 112.728 28.8514 112.728 28.1362C112.728 27.415 112.868 26.7847 113.146 26.2453C113.425 25.7029 113.821 25.2817 114.333 24.9817C114.848 24.6786 115.459 24.5271 116.165 24.5271C116.871 24.5271 117.48 24.6786 117.992 24.9817C118.507 25.2817 118.904 25.7029 119.183 26.2453C119.462 26.7847 119.601 27.415 119.601 28.1362C119.601 28.8514 119.462 29.4802 119.183 30.0226C118.904 30.562 118.507 30.9832 117.992 31.2862C117.48 31.5862 116.871 31.7362 116.165 31.7362ZM116.174 30.2362C116.495 30.2362 116.763 30.1453 116.978 29.9635C117.193 29.7786 117.356 29.5271 117.465 29.2089C117.577 28.8908 117.633 28.5286 117.633 28.1226C117.633 27.7165 117.577 27.3544 117.465 27.0362C117.356 26.718 117.193 26.4665 116.978 26.2817C116.763 26.0968 116.495 26.0044 116.174 26.0044C115.849 26.0044 115.577 26.0968 115.356 26.2817C115.137 26.4665 114.972 26.718 114.86 27.0362C114.751 27.3544 114.696 27.7165 114.696 28.1226C114.696 28.5286 114.751 28.8908 114.86 29.2089C114.972 29.5271 115.137 29.7786 115.356 29.9635C115.577 30.1453 115.849 30.2362 116.174 30.2362ZM124.615 24.618V26.0726H120.306V24.618H124.615ZM121.292 31.5999V24.1135C121.292 23.6074 121.39 23.1877 121.587 22.8544C121.787 22.5211 122.06 22.2711 122.406 22.1044C122.751 21.9377 123.143 21.8544 123.583 21.8544C123.88 21.8544 124.151 21.8771 124.396 21.9226C124.645 21.968 124.83 22.0089 124.951 22.0453L124.606 23.4999C124.53 23.4756 124.436 23.4529 124.324 23.4317C124.215 23.4105 124.103 23.3999 123.987 23.3999C123.703 23.3999 123.504 23.4665 123.392 23.5999C123.28 23.7302 123.224 23.9135 123.224 24.1499V31.5999H121.292ZM132.474 24.618V26.0726H128.269V24.618H132.474ZM129.224 22.9453H131.16V29.4544C131.16 29.6332 131.187 29.7726 131.242 29.8726C131.296 29.9696 131.372 30.0377 131.469 30.0771C131.569 30.1165 131.684 30.1362 131.815 30.1362C131.906 30.1362 131.996 30.1286 132.087 30.1135C132.178 30.0953 132.248 30.0817 132.296 30.0726L132.601 31.5135C132.504 31.5438 132.368 31.5786 132.192 31.618C132.016 31.6605 131.803 31.6862 131.551 31.6953C131.084 31.7135 130.675 31.6514 130.324 31.5089C129.975 31.3665 129.704 31.1453 129.51 30.8453C129.316 30.5453 129.221 30.1665 129.224 29.7089V22.9453ZM135.821 27.5635V31.5999H133.885V22.2908H135.767V25.8499H135.849C136.006 25.4377 136.261 25.115 136.612 24.8817C136.964 24.6453 137.405 24.5271 137.935 24.5271C138.42 24.5271 138.843 24.6332 139.203 24.8453C139.567 25.0544 139.849 25.3559 140.049 25.7499C140.252 26.1408 140.352 26.6089 140.349 27.1544V31.5999H138.412V27.4999C138.415 27.0696 138.306 26.7347 138.085 26.4953C137.867 26.2559 137.561 26.1362 137.167 26.1362C136.903 26.1362 136.67 26.1923 136.467 26.3044C136.267 26.4165 136.109 26.5802 135.994 26.7953C135.882 27.0074 135.824 27.2635 135.821 27.5635ZM145.054 31.7362C144.336 31.7362 143.718 31.5908 143.2 31.2999C142.685 31.0059 142.288 30.5908 142.009 30.0544C141.73 29.515 141.591 28.8771 141.591 28.1408C141.591 27.4226 141.73 26.7923 142.009 26.2499C142.288 25.7074 142.68 25.2847 143.186 24.9817C143.695 24.6786 144.292 24.5271 144.977 24.5271C145.438 24.5271 145.867 24.6014 146.263 24.7499C146.663 24.8953 147.012 25.115 147.309 25.4089C147.609 25.7029 147.842 26.0726 148.009 26.518C148.176 26.9605 148.259 27.4786 148.259 28.0726V28.6044H142.363V27.4044H146.436C146.436 27.1256 146.376 26.8786 146.254 26.6635C146.133 26.4483 145.965 26.2802 145.75 26.1589C145.538 26.0347 145.291 25.9726 145.009 25.9726C144.715 25.9726 144.454 26.0408 144.227 26.1771C144.003 26.3105 143.827 26.4908 143.7 26.718C143.573 26.9423 143.507 27.1923 143.504 27.468V28.6089C143.504 28.9544 143.568 29.2529 143.695 29.5044C143.826 29.7559 144.009 29.9499 144.245 30.0862C144.482 30.2226 144.762 30.2908 145.086 30.2908C145.301 30.2908 145.498 30.2605 145.677 30.1999C145.856 30.1392 146.009 30.0483 146.136 29.9271C146.263 29.8059 146.36 29.6574 146.427 29.4817L148.218 29.5999C148.127 30.0302 147.941 30.4059 147.659 30.7271C147.38 31.0453 147.02 31.2938 146.577 31.4726C146.138 31.6483 145.63 31.7362 145.054 31.7362ZM155.821 31.5999H152.521V22.2908H155.849C156.785 22.2908 157.591 22.4771 158.267 22.8499C158.943 23.2195 159.462 23.7514 159.826 24.4453C160.193 25.1392 160.376 25.9696 160.376 26.9362C160.376 27.9059 160.193 28.7392 159.826 29.4362C159.462 30.1332 158.94 30.668 158.258 31.0408C157.579 31.4135 156.767 31.5999 155.821 31.5999ZM154.49 29.9135H155.74C156.321 29.9135 156.811 29.8105 157.208 29.6044C157.608 29.3953 157.908 29.0726 158.108 28.6362C158.311 28.1968 158.412 27.6302 158.412 26.9362C158.412 26.2483 158.311 25.6862 158.108 25.2499C157.908 24.8135 157.609 24.4923 157.212 24.2862C156.815 24.0802 156.326 23.9771 155.744 23.9771H154.49V29.9135ZM163.788 31.7317C163.343 31.7317 162.946 31.6544 162.598 31.4999C162.249 31.3423 161.973 31.1105 161.77 30.8044C161.57 30.4953 161.47 30.1105 161.47 29.6499C161.47 29.262 161.542 28.9362 161.684 28.6726C161.826 28.4089 162.02 28.1968 162.266 28.0362C162.511 27.8756 162.79 27.7544 163.102 27.6726C163.417 27.5908 163.748 27.5332 164.093 27.4999C164.499 27.4574 164.826 27.418 165.075 27.3817C165.323 27.3423 165.504 27.2847 165.616 27.2089C165.728 27.1332 165.784 27.0211 165.784 26.8726V26.8453C165.784 26.5574 165.693 26.3347 165.511 26.1771C165.332 26.0196 165.078 25.9408 164.748 25.9408C164.399 25.9408 164.122 26.018 163.916 26.1726C163.71 26.3241 163.573 26.515 163.507 26.7453L161.716 26.5999C161.807 26.1756 161.985 25.8089 162.252 25.4999C162.519 25.1877 162.863 24.9483 163.284 24.7817C163.708 24.612 164.199 24.5271 164.757 24.5271C165.145 24.5271 165.516 24.5726 165.87 24.6635C166.228 24.7544 166.545 24.8953 166.82 25.0862C167.099 25.2771 167.319 25.5226 167.479 25.8226C167.64 26.1196 167.72 26.4756 167.72 26.8908V31.5999H165.884V30.6317H165.829C165.717 30.8499 165.567 31.0423 165.379 31.2089C165.192 31.3726 164.966 31.5014 164.702 31.5953C164.438 31.6862 164.134 31.7317 163.788 31.7317ZM164.343 30.3953C164.628 30.3953 164.879 30.3392 165.098 30.2271C165.316 30.112 165.487 29.9574 165.611 29.7635C165.735 29.5696 165.798 29.3499 165.798 29.1044V28.3635C165.737 28.4029 165.654 28.4392 165.548 28.4726C165.445 28.5029 165.328 28.5317 165.198 28.5589C165.067 28.5832 164.937 28.6059 164.807 28.6271C164.676 28.6453 164.558 28.662 164.452 28.6771C164.225 28.7105 164.026 28.7635 163.857 28.8362C163.687 28.9089 163.555 29.0074 163.461 29.1317C163.367 29.2529 163.32 29.4044 163.32 29.5862C163.32 29.8499 163.416 30.0514 163.607 30.1908C163.801 30.3271 164.046 30.3953 164.343 30.3953ZM170.168 34.218C169.923 34.218 169.692 34.1983 169.477 34.1589C169.265 34.1226 169.089 34.0756 168.95 34.018L169.386 32.5726C169.613 32.6423 169.818 32.6802 170 32.6862C170.185 32.6923 170.344 32.6499 170.477 32.5589C170.613 32.468 170.724 32.3135 170.809 32.0953L170.923 31.7999L168.418 24.618H170.454L171.9 29.7453H171.973L173.432 24.618H175.482L172.768 32.3544C172.638 32.7302 172.46 33.0574 172.236 33.3362C172.015 33.618 171.735 33.8347 171.395 33.9862C171.056 34.1408 170.647 34.218 170.168 34.218Z" fill="#FF6154"/>
<path d="M17.564 23.8914L14.3619 30.7202C14.2616 30.9266 14.3678 31.0563 14.7039 30.9915L17.3104 30.4253C17.362 30.4072 17.4188 30.4116 17.467 30.4374C17.5152 30.4632 17.5504 30.508 17.564 30.561L18.7375 32.967C18.8496 33.2264 18.9793 33.2795 19.0795 33.0731L22.4881 25.9259L17.564 23.8914Z" fill="#DE7818"/>
<path d="M27.4358 23.8914L30.6379 30.7202C30.7441 30.9266 30.632 31.0563 30.2959 30.9915L27.6894 30.4253C27.6378 30.4079 27.5812 30.4126 27.5332 30.4382C27.4852 30.4639 27.4499 30.5083 27.4358 30.561L26.2623 32.967C26.1502 33.2264 26.0264 33.2795 25.9202 33.0731L22.5117 25.9259L27.4358 23.8914Z" fill="#DE7818"/>
<path d="M21.5388 27.9132C21.5388 27.9191 21.527 27.9132 21.5152 27.9132C19.7284 27.7151 18.0532 26.9458 16.7386 25.7195C16.7327 25.7136 16.715 25.7077 16.7209 25.7018L16.8683 25.3892C16.8742 25.3774 16.886 25.4069 16.8919 25.4128C18.1539 26.5863 19.9053 27.3235 21.6981 27.5417C21.704 27.5417 21.7157 27.5417 21.7157 27.5476L21.5388 27.9132Z" fill="#B35454"/>
<path d="M22.5 27.5829C27.1345 27.5829 30.8915 23.8259 30.8915 19.1914C30.8915 14.5568 27.1345 10.7998 22.5 10.7998C17.8654 10.7998 14.1084 14.5568 14.1084 19.1914C14.1084 23.8259 17.8654 27.5829 22.5 27.5829Z" fill="#F0CD0A"/>
<path d="M22.4999 26.427C26.4961 26.427 29.7356 23.1875 29.7356 19.1913C29.7356 15.1951 26.4961 11.9556 22.4999 11.9556C18.5037 11.9556 15.2642 15.1951 15.2642 19.1913C15.2642 23.1875 18.5037 26.427 22.4999 26.427Z" fill="#D2B309"/>
<path d="M22.6998 26.3996C26.5657 26.3996 29.6996 23.2657 29.6996 19.3997C29.6996 15.5338 26.5657 12.3999 22.6998 12.3999C18.8339 12.3999 15.7 15.5338 15.7 19.3997C15.7 23.2657 18.8339 26.3996 22.6998 26.3996Z" fill="#E3C101"/>
<path fill-rule="evenodd" clip-rule="evenodd" d="M22.4603 22.6039H24.1806V15.8398H22.4603L20.74 17.0117V18.493L22.3712 17.3914H22.4603V22.6039Z" fill="#FFF2B5"/>
<path d="M24.4756 13.2708C27.161 13.9119 29.0779 16.2811 29.1443 19.0412C29.2108 21.8012 27.4101 24.26 24.7586 25.0295C26.3862 23.7853 27.4654 21.6623 27.4654 19.2504C27.4654 16.7029 26.2624 14.4797 24.4756 13.2708Z" fill="white" fill-opacity="0.2"/>
<path d="M23.4611 27.9131C23.467 27.919 23.4788 27.9131 23.4847 27.9131C25.3187 27.6831 27.0052 26.946 28.2731 25.7312C28.279 25.7253 28.2967 25.7194 28.2908 25.7135L28.1434 25.401C28.1375 25.3892 28.1257 25.4186 28.1198 25.4245C26.8578 26.5981 25.1005 27.3234 23.3019 27.5416C23.296 27.5416 23.2842 27.5416 23.2842 27.5475L23.4611 27.9131Z" fill="#B35454"/>
</g>
</g>
</g>
<defs>
<radialGradient id="paint0_radial_0_1" cx="0" cy="0" r="1" gradientUnits="userSpaceOnUse" gradientTransform="translate(650.5 2378) rotate(74.7011) scale(2465.37 1254.9)">
<stop stop-color="#FF5C0A"/>
<stop offset="0.5" stop-color="#F7F0F0"/>
<stop offset="1" stop-color="#F7F0F0"/>
</radialGradient>
<clipPath id="clip0_0_1">
<rect width="200" height="50" fill="white" transform="translate(0.5 -5)"/>
</clipPath>
<clipPath id="clip1_0_1">
<rect width="200" height="54" fill="white" transform="translate(0.5 -5)"/>
</clipPath>
<clipPath id="clip2_0_1">
<rect width="200" height="43.2" fill="white" transform="translate(0.5 0.399902)"/>
</clipPath>
</defs>
</svg>
