<svg width="284" height="41" viewBox="0 0 284 41" fill="none" xmlns="http://www.w3.org/2000/svg">
<path d="M14.0541 25V15.2H20.0181V16.166H15.2301V19.61H19.3041V20.562H15.2301V25H14.0541ZM19.9185 25L23.5305 15.2H24.7765L28.3745 25H27.1285L26.2325 22.48H22.0605L21.1505 25H19.9185ZM22.4105 21.528H25.8825L24.1465 16.684L22.4105 21.528ZM33.7229 25.168C32.7615 25.168 31.9169 24.958 31.1889 24.538C30.4702 24.1087 29.9055 23.5113 29.4949 22.746C29.0935 21.9807 28.8929 21.0987 28.8929 20.1C28.8929 19.1013 29.0935 18.224 29.4949 17.468C29.9055 16.7027 30.4702 16.1053 31.1889 15.676C31.9169 15.2467 32.7615 15.032 33.7229 15.032C34.6935 15.032 35.5382 15.2467 36.2569 15.676C36.9849 16.1053 37.5495 16.7027 37.9509 17.468C38.3522 18.224 38.5529 19.1013 38.5529 20.1C38.5529 21.0987 38.3522 21.9807 37.9509 22.746C37.5495 23.502 36.9989 24.09 36.2989 24.51L38.7769 26.89H37.2509L35.2629 24.958C34.7869 25.098 34.2735 25.168 33.7229 25.168ZM33.7229 24.132C34.4415 24.132 35.0715 23.9733 35.6129 23.656C36.1635 23.3293 36.5882 22.8673 36.8869 22.27C37.1949 21.6633 37.3489 20.94 37.3489 20.1C37.3489 19.26 37.1949 18.5413 36.8869 17.944C36.5882 17.3467 36.1635 16.8893 35.6129 16.572C35.0715 16.2453 34.4415 16.082 33.7229 16.082C33.0042 16.082 32.3695 16.2453 31.8189 16.572C31.2775 16.8893 30.8529 17.3467 30.5449 17.944C30.2462 18.5413 30.0969 19.26 30.0969 20.1C30.0969 20.94 30.2462 21.6633 30.5449 22.27C30.8529 22.8673 31.2775 23.3293 31.8189 23.656C32.3695 23.9733 33.0042 24.132 33.7229 24.132ZM42.9077 25.168C42.0771 25.168 41.3864 24.958 40.8357 24.538C40.2851 24.118 39.9631 23.5487 39.8697 22.83H41.0737C41.1484 23.194 41.3397 23.5113 41.6477 23.782C41.9651 24.0433 42.3897 24.174 42.9217 24.174C43.4164 24.174 43.7804 24.0713 44.0137 23.866C44.2471 23.6513 44.3637 23.3993 44.3637 23.11C44.3637 22.69 44.2097 22.41 43.9017 22.27C43.6031 22.13 43.1784 22.004 42.6277 21.892C42.2544 21.8173 41.8811 21.71 41.5077 21.57C41.1344 21.43 40.8217 21.234 40.5697 20.982C40.3177 20.7207 40.1917 20.38 40.1917 19.96C40.1917 19.3533 40.4157 18.8587 40.8637 18.476C41.3211 18.084 41.9371 17.888 42.7117 17.888C43.4491 17.888 44.0511 18.0747 44.5177 18.448C44.9937 18.812 45.2691 19.3347 45.3437 20.016H44.1817C44.1351 19.6613 43.9811 19.386 43.7197 19.19C43.4677 18.9847 43.1271 18.882 42.6977 18.882C42.2777 18.882 41.9511 18.9707 41.7177 19.148C41.4937 19.3253 41.3817 19.5587 41.3817 19.848C41.3817 20.128 41.5264 20.3473 41.8157 20.506C42.1144 20.6647 42.5157 20.8 43.0197 20.912C43.4491 21.0053 43.8551 21.122 44.2377 21.262C44.6297 21.3927 44.9471 21.5933 45.1897 21.864C45.4417 22.1253 45.5677 22.508 45.5677 23.012C45.5771 23.6373 45.3391 24.1553 44.8537 24.566C44.3777 24.9673 43.7291 25.168 42.9077 25.168Z" fill="#3D3F54"/>
<path d="M73.9621 28.08V18.056H75.0261L75.1381 19.204C75.3621 18.868 75.6794 18.5647 76.0901 18.294C76.5101 18.0233 77.0421 17.888 77.6861 17.888C78.3768 17.888 78.9788 18.0467 79.4921 18.364C80.0054 18.6813 80.4021 19.1153 80.6821 19.666C80.9714 20.2167 81.1161 20.842 81.1161 21.542C81.1161 22.242 80.9714 22.8673 80.6821 23.418C80.4021 23.9593 80.0008 24.3887 79.4781 24.706C78.9648 25.014 78.3628 25.168 77.6721 25.168C77.1028 25.168 76.5941 25.0513 76.1461 24.818C75.7074 24.5847 75.3714 24.258 75.1381 23.838V28.08H73.9621ZM77.5461 24.146C78.0128 24.146 78.4234 24.0387 78.7781 23.824C79.1328 23.6 79.4128 23.292 79.6181 22.9C79.8234 22.508 79.9261 22.0507 79.9261 21.528C79.9261 21.0053 79.8234 20.548 79.6181 20.156C79.4128 19.764 79.1328 19.4607 78.7781 19.246C78.4234 19.022 78.0128 18.91 77.5461 18.91C77.0794 18.91 76.6688 19.022 76.3141 19.246C75.9594 19.4607 75.6794 19.764 75.4741 20.156C75.2688 20.548 75.1661 21.0053 75.1661 21.528C75.1661 22.0507 75.2688 22.508 75.4741 22.9C75.6794 23.292 75.9594 23.6 76.3141 23.824C76.6688 24.0387 77.0794 24.146 77.5461 24.146ZM82.7531 25V18.056H83.8171L83.9151 19.386C84.1298 18.9287 84.4564 18.5647 84.8951 18.294C85.3338 18.0233 85.8751 17.888 86.5191 17.888V19.12H86.1971C85.7864 19.12 85.4084 19.1947 85.0631 19.344C84.7178 19.484 84.4424 19.7267 84.2371 20.072C84.0318 20.4173 83.9291 20.8933 83.9291 21.5V25H82.7531ZM88.553 16.516C88.3197 16.516 88.1237 16.4413 87.965 16.292C87.8157 16.1333 87.741 15.9373 87.741 15.704C87.741 15.48 87.8157 15.2933 87.965 15.144C88.1237 14.9947 88.3197 14.92 88.553 14.92C88.777 14.92 88.9684 14.9947 89.127 15.144C89.2857 15.2933 89.365 15.48 89.365 15.704C89.365 15.9373 89.2857 16.1333 89.127 16.292C88.9684 16.4413 88.777 16.516 88.553 16.516ZM87.965 25V18.056H89.141V25H87.965ZM93.1907 25L90.5587 18.056H91.7907L93.8767 23.866L95.9767 18.056H97.1807L94.5487 25H93.1907ZM100.444 25.168C99.8653 25.168 99.3846 25.07 99.002 24.874C98.6193 24.678 98.3346 24.4167 98.148 24.09C97.9613 23.7633 97.868 23.4087 97.868 23.026C97.868 22.3167 98.1386 21.7707 98.68 21.388C99.2213 21.0053 99.9586 20.814 100.892 20.814H102.768V20.73C102.768 20.1233 102.609 19.666 102.292 19.358C101.975 19.0407 101.55 18.882 101.018 18.882C100.561 18.882 100.164 18.9987 99.828 19.232C99.5013 19.456 99.296 19.7873 99.212 20.226H98.008C98.0546 19.722 98.2226 19.2973 98.512 18.952C98.8106 18.6067 99.1793 18.3453 99.618 18.168C100.057 17.9813 100.523 17.888 101.018 17.888C101.989 17.888 102.717 18.1493 103.202 18.672C103.697 19.1853 103.944 19.8713 103.944 20.73V25H102.894L102.824 23.754C102.628 24.146 102.339 24.482 101.956 24.762C101.583 25.0327 101.079 25.168 100.444 25.168ZM100.626 24.174C101.074 24.174 101.457 24.0573 101.774 23.824C102.101 23.5907 102.348 23.2873 102.516 22.914C102.684 22.5407 102.768 22.1487 102.768 21.738V21.724H100.99C100.299 21.724 99.8093 21.8453 99.52 22.088C99.24 22.3213 99.1 22.6153 99.1 22.97C99.1 23.334 99.2306 23.628 99.492 23.852C99.7626 24.0667 100.141 24.174 100.626 24.174ZM108.9 25.168C108.238 25.168 107.64 25.0187 107.108 24.72C106.586 24.412 106.17 23.9873 105.862 23.446C105.564 22.8953 105.414 22.256 105.414 21.528C105.414 20.8 105.564 20.1653 105.862 19.624C106.17 19.0733 106.586 18.6487 107.108 18.35C107.64 18.042 108.238 17.888 108.9 17.888C109.722 17.888 110.412 18.1027 110.972 18.532C111.542 18.9613 111.901 19.5353 112.05 20.254H110.846C110.753 19.8247 110.524 19.4933 110.16 19.26C109.796 19.0173 109.372 18.896 108.886 18.896C108.494 18.896 108.126 18.994 107.78 19.19C107.435 19.386 107.155 19.68 106.94 20.072C106.726 20.464 106.618 20.9493 106.618 21.528C106.618 22.1067 106.726 22.592 106.94 22.984C107.155 23.376 107.435 23.6747 107.78 23.88C108.126 24.076 108.494 24.174 108.886 24.174C109.372 24.174 109.796 24.0573 110.16 23.824C110.524 23.5813 110.753 23.2407 110.846 22.802H112.05C111.91 23.502 111.556 24.0713 110.986 24.51C110.417 24.9487 109.722 25.168 108.9 25.168ZM114.449 28.08L116.171 24.328H115.765L113.007 18.056H114.281L116.577 23.46L119.013 18.056H120.231L115.681 28.08H114.449ZM125.177 28.08V18.056H126.241L126.353 19.204C126.577 18.868 126.894 18.5647 127.305 18.294C127.725 18.0233 128.257 17.888 128.901 17.888C129.592 17.888 130.194 18.0467 130.707 18.364C131.22 18.6813 131.617 19.1153 131.897 19.666C132.186 20.2167 132.331 20.842 132.331 21.542C132.331 22.242 132.186 22.8673 131.897 23.418C131.617 23.9593 131.216 24.3887 130.693 24.706C130.18 25.014 129.578 25.168 128.887 25.168C128.318 25.168 127.809 25.0513 127.361 24.818C126.922 24.5847 126.586 24.258 126.353 23.838V28.08H125.177ZM128.761 24.146C129.228 24.146 129.638 24.0387 129.993 23.824C130.348 23.6 130.628 23.292 130.833 22.9C131.038 22.508 131.141 22.0507 131.141 21.528C131.141 21.0053 131.038 20.548 130.833 20.156C130.628 19.764 130.348 19.4607 129.993 19.246C129.638 19.022 129.228 18.91 128.761 18.91C128.294 18.91 127.884 19.022 127.529 19.246C127.174 19.4607 126.894 19.764 126.689 20.156C126.484 20.548 126.381 21.0053 126.381 21.528C126.381 22.0507 126.484 22.508 126.689 22.9C126.894 23.292 127.174 23.6 127.529 23.824C127.884 24.0387 128.294 24.146 128.761 24.146ZM137.132 25.168C136.479 25.168 135.891 25.0187 135.368 24.72C134.845 24.4213 134.43 24.0013 134.122 23.46C133.823 22.9093 133.674 22.2653 133.674 21.528C133.674 20.7907 133.828 20.1513 134.136 19.61C134.444 19.0593 134.859 18.6347 135.382 18.336C135.914 18.0373 136.507 17.888 137.16 17.888C137.813 17.888 138.401 18.0373 138.924 18.336C139.447 18.6347 139.857 19.0593 140.156 19.61C140.464 20.1513 140.618 20.7907 140.618 21.528C140.618 22.2653 140.464 22.9093 140.156 23.46C139.848 24.0013 139.428 24.4213 138.896 24.72C138.373 25.0187 137.785 25.168 137.132 25.168ZM137.132 24.16C137.533 24.16 137.907 24.062 138.252 23.866C138.597 23.67 138.877 23.376 139.092 22.984C139.307 22.592 139.414 22.1067 139.414 21.528C139.414 20.9493 139.307 20.464 139.092 20.072C138.887 19.68 138.611 19.386 138.266 19.19C137.921 18.994 137.552 18.896 137.16 18.896C136.759 18.896 136.385 18.994 136.04 19.19C135.695 19.386 135.415 19.68 135.2 20.072C134.985 20.464 134.878 20.9493 134.878 21.528C134.878 22.1067 134.985 22.592 135.2 22.984C135.415 23.376 135.69 23.67 136.026 23.866C136.371 24.062 136.74 24.16 137.132 24.16ZM142.253 25V14.92H143.429V25H142.253ZM146.071 16.516C145.837 16.516 145.641 16.4413 145.483 16.292C145.333 16.1333 145.259 15.9373 145.259 15.704C145.259 15.48 145.333 15.2933 145.483 15.144C145.641 14.9947 145.837 14.92 146.071 14.92C146.295 14.92 146.486 14.9947 146.645 15.144C146.803 15.2933 146.883 15.48 146.883 15.704C146.883 15.9373 146.803 16.1333 146.645 16.292C146.486 16.4413 146.295 16.516 146.071 16.516ZM145.483 25V18.056H146.659V25H145.483ZM151.898 25.168C151.236 25.168 150.638 25.0187 150.106 24.72C149.584 24.412 149.168 23.9873 148.86 23.446C148.562 22.8953 148.412 22.256 148.412 21.528C148.412 20.8 148.562 20.1653 148.86 19.624C149.168 19.0733 149.584 18.6487 150.106 18.35C150.638 18.042 151.236 17.888 151.898 17.888C152.72 17.888 153.41 18.1027 153.97 18.532C154.54 18.9613 154.899 19.5353 155.048 20.254H153.844C153.751 19.8247 153.522 19.4933 153.158 19.26C152.794 19.0173 152.37 18.896 151.884 18.896C151.492 18.896 151.124 18.994 150.778 19.19C150.433 19.386 150.153 19.68 149.938 20.072C149.724 20.464 149.616 20.9493 149.616 21.528C149.616 22.1067 149.724 22.592 149.938 22.984C150.153 23.376 150.433 23.6747 150.778 23.88C151.124 24.076 151.492 24.174 151.884 24.174C152.37 24.174 152.794 24.0573 153.158 23.824C153.522 23.5813 153.751 23.2407 153.844 22.802H155.048C154.908 23.502 154.554 24.0713 153.984 24.51C153.415 24.9487 152.72 25.168 151.898 25.168ZM157.447 28.08L159.169 24.328H158.763L156.005 18.056H157.279L159.575 23.46L162.011 18.056H163.229L158.679 28.08H157.447Z" fill="#3D3F54"/>
<path d="M192.689 25C192.054 25 191.555 24.846 191.191 24.538C190.827 24.23 190.645 23.6747 190.645 22.872V19.05H189.441V18.056H190.645L190.799 16.39H191.821V18.056H193.865V19.05H191.821V22.872C191.821 23.3107 191.909 23.6093 192.087 23.768C192.264 23.9173 192.577 23.992 193.025 23.992H193.753V25H192.689ZM198.289 25.168C197.627 25.168 197.039 25.0187 196.525 24.72C196.012 24.412 195.606 23.9873 195.307 23.446C195.018 22.9047 194.873 22.2653 194.873 21.528C194.873 20.8 195.018 20.1653 195.307 19.624C195.597 19.0733 195.998 18.6487 196.511 18.35C197.034 18.042 197.636 17.888 198.317 17.888C198.989 17.888 199.568 18.042 200.053 18.35C200.548 18.6487 200.926 19.0453 201.187 19.54C201.449 20.0347 201.579 20.5667 201.579 21.136C201.579 21.2387 201.575 21.3413 201.565 21.444C201.565 21.5467 201.565 21.6633 201.565 21.794H196.035C196.063 22.326 196.185 22.7693 196.399 23.124C196.623 23.4693 196.899 23.7307 197.225 23.908C197.561 24.0853 197.916 24.174 198.289 24.174C198.775 24.174 199.181 24.062 199.507 23.838C199.834 23.614 200.072 23.3107 200.221 22.928H201.383C201.197 23.572 200.837 24.1087 200.305 24.538C199.783 24.958 199.111 25.168 198.289 25.168ZM198.289 18.882C197.729 18.882 197.23 19.0547 196.791 19.4C196.362 19.736 196.115 20.2307 196.049 20.884H200.417C200.389 20.2587 200.175 19.7687 199.773 19.414C199.372 19.0593 198.877 18.882 198.289 18.882ZM203.138 25V18.056H204.202L204.3 19.386C204.515 18.9287 204.841 18.5647 205.28 18.294C205.719 18.0233 206.26 17.888 206.904 17.888V19.12H206.582C206.171 19.12 205.793 19.1947 205.448 19.344C205.103 19.484 204.827 19.7267 204.622 20.072C204.417 20.4173 204.314 20.8933 204.314 21.5V25H203.138ZM208.224 25V18.056H209.288L209.372 19.064C209.596 18.6907 209.894 18.4013 210.268 18.196C210.641 17.9907 211.061 17.888 211.528 17.888C212.078 17.888 212.55 18 212.942 18.224C213.343 18.448 213.651 18.7887 213.866 19.246C214.108 18.826 214.44 18.4947 214.86 18.252C215.289 18.0093 215.751 17.888 216.246 17.888C217.076 17.888 217.739 18.14 218.234 18.644C218.728 19.1387 218.976 19.904 218.976 20.94V25H217.814V21.066C217.814 20.3473 217.669 19.806 217.38 19.442C217.09 19.078 216.675 18.896 216.134 18.896C215.574 18.896 215.107 19.1153 214.734 19.554C214.37 19.9833 214.188 20.5993 214.188 21.402V25H213.012V21.066C213.012 20.3473 212.867 19.806 212.578 19.442C212.288 19.078 211.873 18.896 211.332 18.896C210.781 18.896 210.319 19.1153 209.946 19.554C209.582 19.9833 209.4 20.5993 209.4 21.402V25H208.224ZM223.407 25.168C222.577 25.168 221.886 24.958 221.335 24.538C220.785 24.118 220.463 23.5487 220.369 22.83H221.573C221.648 23.194 221.839 23.5113 222.147 23.782C222.465 24.0433 222.889 24.174 223.421 24.174C223.916 24.174 224.28 24.0713 224.513 23.866C224.747 23.6513 224.863 23.3993 224.863 23.11C224.863 22.69 224.709 22.41 224.401 22.27C224.103 22.13 223.678 22.004 223.127 21.892C222.754 21.8173 222.381 21.71 222.007 21.57C221.634 21.43 221.321 21.234 221.069 20.982C220.817 20.7207 220.691 20.38 220.691 19.96C220.691 19.3533 220.915 18.8587 221.363 18.476C221.821 18.084 222.437 17.888 223.211 17.888C223.949 17.888 224.551 18.0747 225.017 18.448C225.493 18.812 225.769 19.3347 225.843 20.016H224.681C224.635 19.6613 224.481 19.386 224.219 19.19C223.967 18.9847 223.627 18.882 223.197 18.882C222.777 18.882 222.451 18.9707 222.217 19.148C221.993 19.3253 221.881 19.5587 221.881 19.848C221.881 20.128 222.026 20.3473 222.315 20.506C222.614 20.6647 223.015 20.8 223.519 20.912C223.949 21.0053 224.355 21.122 224.737 21.262C225.129 21.3927 225.447 21.5933 225.689 21.864C225.941 22.1253 226.067 22.508 226.067 23.012C226.077 23.6373 225.839 24.1553 225.353 24.566C224.877 24.9673 224.229 25.168 223.407 25.168ZM234.616 25.168C233.963 25.168 233.375 25.0187 232.852 24.72C232.33 24.4213 231.914 24.0013 231.606 23.46C231.308 22.9093 231.158 22.2653 231.158 21.528C231.158 20.7907 231.312 20.1513 231.62 19.61C231.928 19.0593 232.344 18.6347 232.866 18.336C233.398 18.0373 233.991 17.888 234.644 17.888C235.298 17.888 235.886 18.0373 236.408 18.336C236.931 18.6347 237.342 19.0593 237.64 19.61C237.948 20.1513 238.102 20.7907 238.102 21.528C238.102 22.2653 237.948 22.9093 237.64 23.46C237.332 24.0013 236.912 24.4213 236.38 24.72C235.858 25.0187 235.27 25.168 234.616 25.168ZM234.616 24.16C235.018 24.16 235.391 24.062 235.736 23.866C236.082 23.67 236.362 23.376 236.576 22.984C236.791 22.592 236.898 22.1067 236.898 21.528C236.898 20.9493 236.791 20.464 236.576 20.072C236.371 19.68 236.096 19.386 235.75 19.19C235.405 18.994 235.036 18.896 234.644 18.896C234.243 18.896 233.87 18.994 233.524 19.19C233.179 19.386 232.899 19.68 232.684 20.072C232.47 20.464 232.362 20.9493 232.362 21.528C232.362 22.1067 232.47 22.592 232.684 22.984C232.899 23.376 233.174 23.67 233.51 23.866C233.856 24.062 234.224 24.16 234.616 24.16ZM240.115 25V19.05H239.065V18.056H240.115V16.852C240.115 16.18 240.283 15.69 240.619 15.382C240.955 15.074 241.445 14.92 242.089 14.92H242.789V15.928H242.271C241.917 15.928 241.665 16.0027 241.515 16.152C241.366 16.292 241.291 16.5347 241.291 16.88V18.056H242.999V19.05H241.291V25H240.115ZM250.639 25.168C249.817 25.168 249.164 24.9207 248.679 24.426C248.193 23.922 247.951 23.152 247.951 22.116V18.056H249.127V21.99C249.127 23.4367 249.719 24.16 250.905 24.16C251.511 24.16 252.011 23.9453 252.403 23.516C252.804 23.0773 253.005 22.4567 253.005 21.654V18.056H254.181V25H253.117L253.033 23.754C252.818 24.1927 252.496 24.538 252.067 24.79C251.647 25.042 251.171 25.168 250.639 25.168ZM258.776 25.168C257.946 25.168 257.255 24.958 256.704 24.538C256.154 24.118 255.832 23.5487 255.738 22.83H256.942C257.017 23.194 257.208 23.5113 257.516 23.782C257.834 24.0433 258.258 24.174 258.79 24.174C259.285 24.174 259.649 24.0713 259.882 23.866C260.116 23.6513 260.232 23.3993 260.232 23.11C260.232 22.69 260.078 22.41 259.77 22.27C259.472 22.13 259.047 22.004 258.496 21.892C258.123 21.8173 257.75 21.71 257.376 21.57C257.003 21.43 256.69 21.234 256.438 20.982C256.186 20.7207 256.06 20.38 256.06 19.96C256.06 19.3533 256.284 18.8587 256.732 18.476C257.19 18.084 257.806 17.888 258.58 17.888C259.318 17.888 259.92 18.0747 260.386 18.448C260.862 18.812 261.138 19.3347 261.212 20.016H260.05C260.004 19.6613 259.85 19.386 259.588 19.19C259.336 18.9847 258.996 18.882 258.566 18.882C258.146 18.882 257.82 18.9707 257.586 19.148C257.362 19.3253 257.25 19.5587 257.25 19.848C257.25 20.128 257.395 20.3473 257.684 20.506C257.983 20.6647 258.384 20.8 258.888 20.912C259.318 21.0053 259.724 21.122 260.106 21.262C260.498 21.3927 260.816 21.5933 261.058 21.864C261.31 22.1253 261.436 22.508 261.436 23.012C261.446 23.6373 261.208 24.1553 260.722 24.566C260.246 24.9673 259.598 25.168 258.776 25.168ZM266.238 25.168C265.576 25.168 264.988 25.0187 264.474 24.72C263.961 24.412 263.555 23.9873 263.256 23.446C262.967 22.9047 262.822 22.2653 262.822 21.528C262.822 20.8 262.967 20.1653 263.256 19.624C263.546 19.0733 263.947 18.6487 264.46 18.35C264.983 18.042 265.585 17.888 266.266 17.888C266.938 17.888 267.517 18.042 268.002 18.35C268.497 18.6487 268.875 19.0453 269.136 19.54C269.398 20.0347 269.528 20.5667 269.528 21.136C269.528 21.2387 269.524 21.3413 269.514 21.444C269.514 21.5467 269.514 21.6633 269.514 21.794H263.984C264.012 22.326 264.134 22.7693 264.348 23.124C264.572 23.4693 264.848 23.7307 265.174 23.908C265.51 24.0853 265.865 24.174 266.238 24.174C266.724 24.174 267.13 24.062 267.456 23.838C267.783 23.614 268.021 23.3107 268.17 22.928H269.332C269.146 23.572 268.786 24.1087 268.254 24.538C267.732 24.958 267.06 25.168 266.238 25.168ZM266.238 18.882C265.678 18.882 265.179 19.0547 264.74 19.4C264.311 19.736 264.064 20.2307 263.998 20.884H268.366C268.338 20.2587 268.124 19.7687 267.722 19.414C267.321 19.0593 266.826 18.882 266.238 18.882Z" fill="#3D3F54"/>
</svg>
